<svg width="159" height="159" viewBox="0 0 159 159" fill="none" xmlns="http://www.w3.org/2000/svg">
<circle cx="79.5" cy="79.5" r="79.5" fill="#D9D9D9"/>
<path d="M79.6667 8C40.8162 8 8 40.8162 8 79.6667C8 118.517 40.8162 151.333 79.6667 151.333C118.517 151.333 151.333 118.517 151.333 79.6667C151.333 40.8162 118.517 8 79.6667 8ZM79.6667 43.8333C92.0435 43.8333 101.167 52.9493 101.167 65.3333C101.167 77.7173 92.0435 86.8333 79.6667 86.8333C67.297 86.8333 58.1667 77.7173 58.1667 65.3333C58.1667 52.9493 67.297 43.8333 79.6667 43.8333ZM43.0737 113.866C49.5022 104.406 60.2235 98.0993 72.5 98.0993H86.8333C99.117 98.0993 109.831 104.406 116.26 113.866C107.101 123.67 94.1075 129.833 79.6667 129.833C65.2258 129.833 52.2327 123.67 43.0737 113.866Z" fill="#0D064A"/>
</svg>
